#!OML:ASF F:\twosubjects\two\Thursday\Session 1\justin.ASF
:FULLY-SPECIFIED
:DEGREES
690
root 10.8682 17.8126 -12.043 0.0656034 -50.5896 5.85927
lowerback -2.44162 1.9967 -3.73106
upperback -0.501086 2.74964 0.581589
thorax 0.649058 1.36905 2.76336
lowerneck -20.4947 7.16192 -2.82268
upperneck 20.4507 11.3873 -2.31264
head 9.8593 4.73276 1.26438
rclavicle 1.33881e-013 7.95139e-015
rhumerus -27.6279 -11.5864 -81.5447
rradius 29.4611
rwrist -1.18891
rhand -15.1567 12.8991
rfingers 7.12502
rthumb 11.0136 -16.792
lclavicle 1.33881e-013 7.95139e-015
lhumerus -28.7209 8.3637 84.6747
lradius 30.8567
lwrist -13.4977
lhand -0.112044 39.733
lfingers 7.12502
lthumb 25.4831 68.0492
rfemur -5.3731 -2.84943 5.56904
rtibia 20.1596
rfoot -14.3905 -15.9126
rtoes -16.8517
lfemur -6.42871 11.0274 -27.01
ltibia 16.0024
lfoot -13.0538 -0.750388
ltoes -8.858
691
root 10.8695 17.8135 -12.0407 0.0668073 -50.559 5.82385
lowerback -2.4531 1.95268 -3.7041
upperback -0.482763 2.69081 0.616484
thorax 0.678293 1.33885 2.78376
lowerneck -20.4668 7.18224 -2.80666
upperneck 20.401 11.425 -2.39059
head 9.84309 4.74434 1.23827
rclavicle 1.24539e-013 3.97569e-015
rhumerus -27.5554 -11.2749 -81.6758
rradius 29.6136
rwrist -1.47202
rhand -14.7866 13.0792
rfingers 7.12502
rthumb 11.3706 -16.5925
lclavicle 1.24539e-013 3.97569e-015
lhumerus -28.7028 8.26928 84.7359
lradius 30.9385
lwrist -13.2721
lhand -0.220104 39.7701
lfingers 7.12502
lthumb 25.3795 68.101
rfemur -5.32066 -2.88511 5.57638
rtibia 20.1448
rfoot -14.4467 -15.8401
rtoes -16.5522
lfemur -6.39553 11.0653 -26.9943
ltibia 15.9847
lfoot -13.124 -0.721397
ltoes -9.17824
692
root 10.8702 17.8141 -12.0402 0.138163 -50.5484 5.68119
lowerback -2.4418 1.93277 -3.62878
upperback -0.456678 2.66197 0.669505
thorax 0.701854 1.32376 2.79564
lowerneck -20.6489 7.1926 -2.94068
upperneck 20.586 11.4417 -2.14436
head 9.91584 4.76061 1.35718
rclavicle 1.0312e-014 1.59028e-015
rhumerus -27.4808 -11.0011 -81.793
rradius 29.7158
rwrist -1.76994
rhand -14.7124 12.9709
rfingers 7.12502
rthumb 11.4421 -16.6969
lclavicle 1.0312e-014 1.59028e-015
lhumerus -28.5815 7.87147 84.9086
lradius 30.8911
lwrist -12.6727
lhand -0.999064 39.7147
lfingers 7.12502
lthumb 24.6331 68.1494
rfemur -5.27897 -2.87655 5.69208
rtibia 20.1161
rfoot -14.3492 -15.959
rtoes -16.8045
lfemur -6.36058 11.0406 -26.8888
ltibia 15.9944
lfoot -13.1098 -0.62166
ltoes -8.93714
693
root 10.8697 17.815 -12.0415 0.219226 -50.5533 5.5622
lowerback -2.44131 1.94524 -3.55092
upperback -0.445671 2.67683 0.663731
thorax 0.715639 1.33089 2.74672
lowerneck -20.7074 7.19195 -2.8608
upperneck 20.595 11.4099 -2.10623
head 9.93154 4.75569 1.35631
rclavicle 8.21478e-014 8.74653e-015
rhumerus -27.4446 -10.964 -81.9222
rradius 29.7937
rwrist -1.83825
rhand -14.8278 12.6015
rfingers 7.12502
rthumb 11.3308 -17.0724
lclavicle 8.21478e-014 8.74653e-015
lhumerus -28.405 7.57306 84.961
lradius 30.7448
lwrist -12.472
lhand -1.5875 39.6331
lfingers 7.12502
lthumb 24.069 68.1436
rfemur -5.26265 -2.83265 5.79564
rtibia 20.082
rfoot -14.261 -16.0918
rtoes -17.0106
lfemur -6.36508 11.0062 -26.7942
ltibia 16.0348
lfoot -13.1327 -0.568093
ltoes -9.27967
694
root 10.8697 17.8139 -12.0415 0.152669 -50.5661 5.66638
lowerback -2.45046 1.98985 -3.5742
upperback -0.470236 2.73738 0.592876
thorax 0.69347 1.36184 2.68809
lowerneck -20.7804 7.15108 -2.73374
upperneck 20.7058 11.326 -2.11213
head 9.99274 4.71968 1.32962
rclavicle -6.84813e-014 -1.19271e-014
rhumerus -27.4662 -11.1602 -82.0003
rradius 29.8176
rwrist -1.7003
rhand -14.9103 12.3252
rfingers 7.12502
rthumb 11.2513 -17.353
lclavicle -6.84813e-014 -1.19271e-014
lhumerus -28.2768 7.28818 84.9797
lradius 30.5977
lwrist -12.3617
lhand -1.85703 39.7912
lfingers 7.12502
lthumb 23.8105 68.3357
rfemur -5.24028 -2.80211 5.70702
rtibia 20.0568
rfoot -14.369 -16.0112
rtoes -16.4576
lfemur -6.40489 11.0739 -26.8753
ltibia 16.0857
lfoot -13.2415 -0.580737
ltoes -8.82893
695
root 10.8707 17.8116 -12.0399 0.0737406 -50.5742 5.79112
lowerback -2.45614 2.0027 -3.65171
upperback -0.496339 2.75625 0.584905
thorax 0.66518 1.37206 2.72325
lowerneck -21.0043 7.14756 -2.78749
upperneck 20.9905 11.335 -1.98034
head 10.1229 4.71876 1.40172
rclavicle -5.96106e-014 2.3059e-014
rhumerus -27.4787 -11.2129 -82.0002
rradius 29.841
rwrist -1.72721
rhand -14.9387 12.2071
rfingers 7.12502
rthumb 11.2239 -17.4727
lclavicle -5.96106e-014 2.3059e-014
lhumerus -28.2568 6.74402 85.217
lradius 30.6528
lwrist -11.4856
lhand -2.09999 40.3077
lfingers 7.12502
lthumb 23.5775 68.8823
rfemur -5.25964 -2.82079 5.61231
rtibia 20.0671
rfoot -14.4227 -15.9871
rtoes -16.8409
lfemur -6.43807 11.1254 -26.982
ltibia 16.1117
lfoot -13.4373 -0.637466
ltoes -8.08649
696
root 10.8713 17.8097 -12.0383 0.0456056 -50.5867 5.82321
lowerback -2.47369 2.01158 -3.68239
upperback -0.489658 2.76939 0.619239
thorax 0.677723 1.37828 2.77688
lowerneck -20.9532 7.13891 -2.8533
upperneck 20.8885 11.35 -2.04168
head 10.0776 4.71826 1.38777
rclavicle -7.41715e-014 1.11319e-014
rhumerus -27.4411 -11.13 -81.994
rradius 29.8927
rwrist -1.94563
rhand -15.1286 12.1357
rfingers 7.12502
rthumb 11.0407 -17.5539
lclavicle -7.41715e-014 1.11319e-014
lhumerus -28.2692 6.3855 85.4449
lradius 30.7885
lwrist -10.9438
lhand -2.20931 40.6276
lfingers 7.12502
lthumb 23.4726 69.2157
rfemur -5.29629 -2.8943 5.5958
rtibia 20.0796
rfoot -14.3083 -16.0018
rtoes -17.5528
lfemur -6.44773 11.1808 -27.0025
ltibia 16.1374
lfoot -13.3277 -0.686071
ltoes -8.53091
697
root 10.8716 17.8089 -12.0381 0.0449524 -50.5975 5.80462
lowerback -2.48212 2.02248 -3.65895
upperback -0.492168 2.7833 0.654536
thorax 0.678175 1.38532 2.80064
lowerneck -20.8021 7.08274 -2.98353
upperneck 20.7368 11.302 -2.06975
head 9.99077 4.6923 1.38034
rclavicle 2.28602e-014 6.36111e-015
rhumerus -27.4279 -10.9305 -82.0001
rradius 29.9402
rwrist -2.06722
rhand -15.3996 12.1765
rfingers 7.12502
rthumb 10.7793 -17.5269
lclavicle 2.28602e-014 6.36111e-015
lhumerus -28.2896 6.45827 85.4938
lradius 30.8602
lwrist -11.1168
lhand -2.16442 40.5567
lfingers 7.12502
lthumb 23.5157 69.1393
rfemur -5.30171 -2.96834 5.6064
rtibia 20.0872
rfoot -14.1945 -15.9398
rtoes -17.4587
lfemur -6.44041 11.2583 -26.9752
ltibia 16.1519
lfoot -13.1239 -0.77171
ltoes -8.51122
698
root 10.8728 17.8099 -12.038 0.132376 -50.5894 5.67818
lowerback -2.50128 2.00498 -3.55549
upperback -0.47122 2.7581 0.685901
thorax 0.715682 1.37185 2.77574
lowerneck -20.7992 7.08991 -3.02647
upperneck 20.6835 11.3235 -2.07722
head 9.9691 4.70039 1.38563
rclavicle 5.26034e-014 1.35174e-014
rhumerus -27.3207 -10.7762 -82.0563
rradius 29.9391
rwrist -2.06908
rhand -15.4151 12.1374
rfingers 7.12502
rthumb 10.7644 -17.5667
lclavicle 5.26034e-014 1.35174e-014
lhumerus -28.2309 6.86907 85.3586
lradius 30.8515
lwrist -11.6362
lhand -1.8011 40.1701
lfingers 7.12502
lthumb 23.8642 68.7076
rfemur -5.29113 -2.94406 5.68713
rtibia 20.121
rfoot -14.2485 -15.9176
rtoes -16.9235
lfemur -6.40988 11.2714 -26.8846
ltibia 16.1118
lfoot -13.074 -0.871663
ltoes -8.02066
699
root 10.8745 17.8101 -12.0372 0.116955 -50.5901 5.72894
lowerback -2.54265 2.00912 -3.55946
upperback -0.459062 2.76574 0.653559
thorax 0.752184 1.37473 2.74695
lowerneck -20.73 7.11526 -2.95817
upperneck 20.5274 11.3398 -2.14386
head 9.90932 4.71365 1.34749
rclavicle -1.81639e-014 -1.59028e-015
rhumerus -27.2155 -10.8216 -82.1091
rradius 29.906
rwrist -2.02959
rhand -15.3404 12.0915
rfingers 7.12502
rthumb 10.8364 -17.6089
lclavicle -1.81639e-014 -1.59028e-015
lhumerus -28.181 7.47927 85.1249
lradius 30.8234
lwrist -12.489
lhand -1.2713 39.5482
lfingers 7.12502
lthumb 24.3721 68.0183
rfemur -5.32549 -2.88232 5.64439
rtibia 20.1594
rfoot -14.3418 -15.9296
rtoes -16.4594
lfemur -6.40413 11.2984 -26.9334
ltibia 16.045
lfoot -13.0455 -0.871899
ltoes -8.27724
